<svg width="184" height="94" viewBox="0 0 184 94" fill="none" xmlns="http://www.w3.org/2000/svg">
<path d="M42.9288 9.0384C42.8626 8.51665 42.7288 8.00568 42.5306 7.5183C42.4795 7.33195 42.3522 7.1756 42.1798 7.08746C42.0659 7.05791 41.9464 7.05658 41.8318 7.08358L40.0448 7.35626C39.8952 7.36307 39.752 7.41856 39.6371 7.51424C39.4043 7.75833 39.6335 8.15138 39.6264 8.48814C39.6184 8.86681 39.281 9.17418 38.9151 9.27587C38.5417 9.35112 38.1564 9.34636 37.7849 9.2619L35.2862 8.87467C36.0221 8.64037 36.6771 8.20447 37.1765 7.6167C37.5053 7.22824 37.6803 6.50299 37.2051 6.31903C37.0639 6.28039 36.9166 6.2686 36.7711 6.28428C35.639 6.29306 34.7481 5.35044 33.6882 4.95344C32.2968 4.46591 30.7487 4.92612 29.8521 6.09387L31.1832 6.15787C31.3084 6.15097 31.4326 6.184 31.5377 6.25217C31.8295 6.49118 31.4668 6.95028 31.5079 7.32455C31.5613 7.81081 32.2087 7.91463 32.6967 7.9638C33.1848 8.01297 33.8039 8.4084 33.5692 8.83791C31.1162 9.68049 28.62 7.19087 26.0439 7.49733C25.3919 7.5749 24.7762 7.83033 24.1396 7.99094C20.251 8.97209 16.2309 6.35427 12.2584 6.90868C11.3753 7.05881 10.5073 7.28709 9.6648 7.59081C9.12414 7.76784 8.5602 7.95915 8.16736 8.36971C7.77453 8.78028 7.62501 9.48242 7.99717 9.91172C6.97142 9.99595 5.93881 9.89807 4.94735 9.62262C5.49347 9.92535 5.83034 10.5012 5.82579 11.1243C4.2242 11.3847 2.66502 11.8588 1.19019 12.5338C1.46545 12.9903 1.78695 13.4174 2.14964 13.8084L0.12207 15.1074C0.807081 15.2795 1.16125 16.211 0.762891 16.7928C1.47317 16.4777 1.91337 15.6625 2.67289 15.4972C3.17048 15.389 3.67679 15.592 4.14883 15.7827C4.62087 15.9733 5.13969 16.1583 5.62835 16.0151C6.11701 15.872 6.47745 15.2401 6.16693 14.8376C8.2556 14.2299 10.4142 13.8935 12.5892 13.837C12.757 13.816 12.9272 13.8482 13.0756 13.929C13.3587 14.1249 13.2842 14.548 13.269 14.8913C13.2537 15.2346 13.5221 15.6858 13.8297 15.5311C13.4677 15.8441 13.7772 16.4334 14.1245 16.7626C14.4718 17.0918 14.8904 17.546 14.6778 17.9742C14.6223 18.0859 14.5281 18.1753 14.4748 18.2881C14.3171 18.621 14.5674 19.009 14.8625 19.2301C15.1577 19.4511 15.5192 19.6056 15.7243 19.9117C15.9293 20.2178 15.8362 20.7536 15.4696 20.7963L14.4275 19.4769C14.0714 19.845 13.8274 20.3063 13.7235 20.8072C14.8286 21.708 14.9948 23.5416 14.0697 24.6255C13.5969 25.1793 12.9246 25.5159 12.3378 25.9479C11.751 26.3799 11.2081 26.9951 11.2096 27.7225C11.2121 28.9791 11.1091 30.1466 11.5813 31.3116C12.4521 33.4599 13.4573 35.5514 14.5912 37.5738C14.889 38.1049 15.2738 38.687 15.8771 38.7784C15.1147 36.9277 14.4285 35.0482 13.8183 33.1398C14.2157 33.1414 14.675 33.1729 14.9079 33.4939C15.1009 33.7598 15.0594 34.1213 15.1194 34.444C15.1956 34.7567 15.3227 35.0547 15.4957 35.3263L19.1361 41.793C19.4379 42.3291 19.7841 42.9045 20.3608 43.1216C20.7296 43.2604 21.1562 43.2343 21.4956 43.4341C21.7617 43.5907 21.9409 43.8688 22.2121 44.0163C22.979 44.4335 24.0454 43.6334 24.762 44.1315C24.9669 44.2739 25.0973 44.5002 25.2861 44.6632C25.948 45.2349 27.0338 44.8525 27.7979 45.2789C28.2903 45.5537 28.5455 46.1033 28.8082 46.6014C29.4661 47.849 30.5307 49.0712 31.9407 49.1706C32.3836 49.2018 32.836 49.1181 33.269 49.2163C33.7019 49.3145 34.1281 49.6913 34.0586 50.1287C33.9395 50.8784 34.3109 51.6994 34.2112 52.4519C34.0295 53.8228 32.0797 54.4252 31.9122 55.7978C31.8755 56.0983 31.9329 56.4085 31.8611 56.7027C31.7732 57.0632 31.5017 57.3568 31.4052 57.7151C31.2224 58.3943 31.7103 59.0701 32.2463 59.527C32.7823 59.9839 33.4216 60.3779 33.7146 61.0175C34.0244 61.6935 33.8722 62.4818 33.973 63.2182C34.1929 64.8259 35.5853 66.0177 37.0184 66.7862C37.455 67.0203 37.9238 67.247 38.2064 67.6532C38.5752 68.1833 38.5385 68.8822 38.6616 69.5157C38.9633 71.067 40.2729 72.3453 40.3101 73.9251C40.3365 75.048 39.7106 76.0667 39.3367 77.1262C38.6274 79.1803 38.8506 81.4407 39.948 83.3174C40.2277 83.7884 40.5622 84.2325 40.7601 84.7431C41.1132 85.6542 40.9986 86.69 41.3242 87.6113C41.7546 88.8293 42.9372 89.8353 42.824 91.1218C43.361 92.2337 44.5466 92.7801 45.7389 93.111L47.8756 93.7042C48.2847 93.8177 48.7123 93.9322 49.1289 93.85C49.5455 93.7677 49.9431 93.4228 49.9323 92.9994C48.8845 92.7637 47.803 92.5131 46.9393 91.8764C46.0755 91.2396 45.4838 90.1058 45.8116 89.0857C45.9635 88.6126 46.2868 88.0664 45.9794 87.6756C45.8035 87.4518 45.4816 87.3933 45.2831 87.1891C44.9735 86.8707 45.0799 86.3357 45.3025 85.9517C45.5251 85.5676 45.8468 85.2244 45.9366 84.79C46.0294 84.2923 45.8022 83.7895 45.3669 83.529C45.7631 83.3799 46.1234 83.1493 46.4245 82.8523C46.7026 82.5355 46.8311 82.0472 46.6123 81.6872C47.262 81.7693 48.0291 81.8096 48.4556 81.314C48.7962 80.9182 48.7728 80.3265 48.6382 79.8225C48.5036 79.3185 48.2762 78.829 48.2691 78.3075C49.7678 78.3784 51.2699 78.3276 52.7604 78.1557C52.5449 77.4318 52.0551 76.8201 51.3949 76.4502C52.07 76.3363 52.6849 75.5304 52.8982 74.8816C53.1115 74.2328 53.0571 73.5261 52.9253 72.8562C52.8747 72.6837 52.8677 72.5014 52.9051 72.3255C52.9811 72.0839 53.2191 71.9365 53.4393 71.8104L56.79 69.8914C56.99 69.7915 57.1712 69.6581 57.3258 69.4969C57.6769 69.0857 57.6249 68.465 57.4451 67.9555C57.2654 67.4461 56.9774 66.967 56.9082 66.4314C56.7011 64.8295 58.4207 63.6802 59.001 62.1722C59.2287 61.5805 59.2751 60.9372 59.3192 60.3049C59.3665 59.6258 59.3701 58.8369 58.8472 58.3993C58.3459 57.9797 57.5627 58.0733 57.0382 57.6831C56.5573 57.3253 56.3914 56.6305 55.8661 56.3415C55.389 56.0791 54.7908 56.246 54.2602 56.1226C53.326 55.9052 52.7381 54.8315 51.7839 54.7321C51.2456 54.676 50.6363 54.9384 50.1951 54.6258C49.8063 54.3503 49.7908 53.7966 49.7168 53.3267C49.4511 51.8311 48.2794 50.6588 46.7805 50.3891C46.2254 50.3004 45.6213 50.3341 45.1491 50.0299C44.6709 49.7219 44.4517 49.1452 44.0761 48.7187C43.4708 48.0312 42.5175 47.787 41.6244 47.5776L37.9918 46.726C37.3469 46.5748 36.5157 46.4946 36.1697 47.0579C36.0672 47.2724 35.9947 47.4999 35.9541 47.734C35.6881 48.6027 34.8907 49.2013 33.9799 49.2158C33.6754 48.698 33.1822 48.3174 32.6031 48.1535C32.2348 48.0512 31.8405 48.0398 31.4892 47.8892C31.1025 47.7009 30.8106 47.3622 30.6822 46.9527C30.5537 46.5432 30.6 46.099 30.8102 45.7246C31.2408 44.9601 31.1044 44.0028 30.4774 43.3882C29.8596 42.8351 28.966 42.7015 28.1377 42.7568C27.9207 42.2848 28.2835 41.7522 28.6744 41.4091C29.0653 41.066 29.5399 40.7288 29.6251 40.2165C29.759 39.4106 28.7279 38.7986 27.9451 39.0389C27.1622 39.2791 26.6625 40.0374 26.3322 40.7849C26.1427 41.2138 25.9816 41.6654 25.6827 42.027C25.3838 42.3886 24.9024 42.6476 24.447 42.5315C23.8024 42.3672 23.5535 41.6035 23.4108 40.9554C23.2194 40.0859 23.0269 39.2044 23.067 38.3151C23.1071 37.4258 23.4077 36.5127 24.0653 35.9107C25.1368 34.9296 26.7807 35.0258 28.2268 35.1823C27.8852 34.7984 27.9696 34.1514 28.3352 33.7901C28.727 33.443 29.2653 33.3111 29.7738 33.4376C30.2096 33.5281 30.6021 33.7622 30.8883 34.1022C31.2993 34.6018 31.4161 35.2764 31.7268 35.8436C32.0374 36.4107 32.7358 36.8945 33.3075 36.5902C33.8013 36.3274 33.8797 35.6446 33.7568 35.1C33.6339 34.5555 33.3729 34.0259 33.4174 33.4695C33.5024 32.4079 34.6059 31.7688 35.5798 31.3316C36.5537 30.8943 37.6688 30.3063 37.8231 29.2524C37.8284 29.0461 37.8674 28.842 37.9386 28.6482C38.0466 28.477 38.1967 28.3363 38.3747 28.2393C41.2169 26.3662 44.1064 24.4702 47.3549 23.4466C47.5239 23.3934 47.5438 23.4526 47.716 23.4109C47.9571 23.2719 47.7974 22.8876 47.5662 22.7327C47.3351 22.5779 47.0262 22.4592 46.9676 22.1878C46.9245 21.9882 47.0424 21.7923 47.073 21.5905C47.1482 21.0946 46.5533 20.6368 46.0914 20.835C45.8304 20.4904 46.3468 20.09 46.7643 19.9753C48.018 19.6312 49.3049 19.4216 50.6032 19.3499C50.7531 19.3262 50.9066 19.3522 51.0401 19.424C51.2581 19.5747 51.2303 19.9202 51.0757 20.1352C50.9212 20.3502 50.6808 20.4852 50.4882 20.6671C50.0593 21.0838 49.8989 21.704 50.0722 22.2756C50.75 22.6194 51.4869 22.9734 52.2376 22.8522C52.9883 22.7311 53.6545 21.89 53.3017 21.2182C52.9731 20.5927 51.9861 20.4516 51.8164 19.766C51.6177 18.9633 52.7571 18.2493 52.5005 17.4631C52.388 17.1188 52.0439 16.9161 51.7798 16.6675C51.1414 16.0435 50.9532 15.0924 51.306 14.2734C50.4331 14.4265 49.54 14.1478 48.9104 13.5258C48.3374 12.9492 47.8803 12.0395 47.0666 12.0653C46.32 12.0889 45.6768 12.9576 44.9786 12.6926C44.8069 12.6274 44.6258 12.4947 44.4594 12.5725C44.3488 12.644 44.2774 12.7622 44.2657 12.8931C44.0882 13.739 44.3934 14.7029 43.9311 15.4339C43.428 16.2293 42.2643 16.3396 41.6544 17.0569C41.3233 17.4463 41.195 17.9709 40.8907 18.3815C40.5864 18.792 39.9405 19.053 39.5753 18.6952C39.9449 17.9374 39.7406 17.0255 39.0827 16.4966C38.7437 16.276 38.3782 16.0988 37.9948 15.9689C37.5664 15.7881 37.1589 15.5616 36.7794 15.2934C36.5893 15.1791 36.4348 15.0142 36.3332 14.8173C36.2529 14.5708 36.2637 14.3037 36.3637 14.0645C36.7411 12.9854 37.687 12.2036 38.8203 12.034C39.3066 11.968 39.8725 11.9912 40.1943 11.6218C40.3646 11.4263 40.4539 11.1307 40.7011 11.0513C40.8592 11.0196 41.0233 11.0398 41.169 11.1087L42.984 11.7458C43.1865 11.837 43.4094 11.8738 43.6305 11.8525C43.858 11.8219 44.0233 11.6215 44.0096 11.3931C43.9516 11.0925 43.4878 10.9482 43.53 10.6451C43.5536 10.5468 43.6066 10.458 43.6819 10.3904C45.0081 8.98277 46.8956 8.23948 48.8284 8.36373C49.0575 8.73892 48.6952 9.18322 48.3937 9.50351C48.0923 9.82381 47.85 10.3961 48.2146 10.6426C48.364 10.7187 48.5302 10.756 48.6979 10.7512C49.1447 10.8115 49.579 10.9428 49.9841 11.1402C50.6113 11.4124 51.2265 11.7102 51.8296 12.0337C51.7763 11.6371 51.7254 11.2193 51.8762 10.8486C52.0269 10.4778 52.4553 10.1869 52.8294 10.3313C53.19 10.4705 53.375 10.9466 53.7591 10.9903C54.2716 11.0485 54.4738 10.2935 54.2597 9.8255C54.0457 9.35754 53.6219 8.9657 53.5865 8.45256C53.5627 8.10637 53.6948 7.67703 53.4175 7.4674C53.3188 7.40447 53.2068 7.3653 53.0903 7.353L46.1665 6.08242C45.7553 6.00697 45.1613 6.0648 45.1431 6.4813C45.1329 6.71378 45.3411 6.94378 45.2489 7.15754C45.1505 7.38568 44.8271 7.36482 44.5915 7.44551C44.226 7.57072 44.0426 8.00349 44.0777 8.38727C44.142 8.76861 44.2901 9.13104 44.5114 9.44857C44.0611 9.26075 43.3792 9.22622 42.9288 9.0384Z" fill="#E4E7EB"/>
<path d="M37.0045 3.04785C36.0831 2.74061 35.0693 3.04651 34.4672 3.81346C34.3497 3.96927 34.2511 4.18406 34.3494 4.35278C34.4904 4.59466 34.8496 4.49912 35.1144 4.4126C35.5037 4.27249 35.9273 4.2623 36.3228 4.38356C36.5714 4.46958 36.7939 4.62161 37.0437 4.70438C37.2914 4.80879 37.5761 4.76687 37.7839 4.5954C37.9553 4.41926 37.966 4.14543 37.9663 3.89874C37.9904 3.73158 37.9384 3.56239 37.8246 3.43826C37.7247 3.37992 37.6123 3.34644 37.4969 3.34061C37.2385 3.29241 37.0049 3.15487 36.8363 2.95171" fill="#E4E7EB"/>
<path d="M39.8746 2.93045C39.6494 2.923 39.4341 2.98746 39.3065 3.10055C39.1789 3.21364 39.1575 3.35901 39.2499 3.48412C39.59 3.54052 39.9452 3.55461 40.2945 3.52554C40.6506 3.49191 40.9386 3.33132 41.0246 3.11842C40.6134 3.16393 40.1891 3.11464 39.8345 2.98018" fill="#E4E7EB"/>
<path d="M48.223 1.24169C47.4232 1.41477 46.6463 1.6834 45.9084 2.042C46.6226 2.32141 47.0734 3.04308 47.0191 3.81987C46.9879 3.96513 46.9915 4.1159 47.0297 4.25944C47.1147 4.4692 47.361 4.54791 47.5776 4.60175C47.9666 4.72227 48.3729 4.77505 48.7792 4.75787C49.1922 4.73588 49.5663 4.50317 49.7739 4.13917C49.8328 3.96912 49.9019 3.80291 49.9808 3.64146C50.4999 2.83679 52.0419 3.80976 52.5992 3.03203C52.7956 2.75806 52.7776 2.34567 53.0335 2.12858C53.1659 2.034 53.3193 1.9744 53.48 1.95516C54.6007 1.7285 55.7328 1.56439 56.8712 1.46354C57.4106 1.41576 58.1136 1.21863 58.1181 0.667553C56.0865 0.261418 53.9799 0.549871 52.126 1.48807C51.458 1.82861 50.5746 2.54494 49.9311 2.09347C49.6902 1.92443 49.7022 1.46925 49.3706 1.27917C49.0316 1.08483 48.5828 1.16387 48.223 1.24169Z" fill="#E4E7EB"/>
<path d="M54.7946 2.58961L55.7555 2.77436C55.3976 2.7585 55.0503 2.89759 54.8022 3.1561C54.5542 3.41461 54.4293 3.76749 54.4597 4.1246C55.3595 4.4254 56.3405 4.13269 57.2884 4.17267C58.2363 4.21266 59.3392 4.89017 59.1774 5.82558C59.1284 6.10842 58.9652 6.39106 59.0501 6.66524C59.1096 6.85741 59.279 6.99377 59.3746 7.17076C59.5738 7.53957 59.4145 8.00606 59.163 8.34132C58.9114 8.67658 58.5733 8.94408 58.3525 9.30037C57.8034 10.1865 58.1154 11.3321 58.4425 12.3221C58.5371 12.6962 58.7118 13.0452 58.9544 13.3451C59.4391 13.8607 60.2289 13.9056 60.9363 13.9159C61.4511 13.9234 62.0409 13.898 62.3665 13.4988C62.7915 12.9777 62.4943 12.1647 62.7741 11.5531C63.0283 10.9977 63.6758 10.7594 64.2625 10.5904C65.3373 10.2808 66.4327 10.0175 67.4488 9.54987C68.7105 8.96914 69.8897 8.06415 71.2765 7.9894C71.6656 7.96843 72.0643 8.01437 72.4391 7.90771C72.8139 7.80104 73.1699 7.47682 73.1415 7.08797C73.1173 6.75574 72.8363 6.51177 72.6168 6.26131C72.3973 6.01085 72.225 5.62572 72.4267 5.36074L76.0617 4.68135C75.8041 3.9787 75.6033 3.05329 76.1954 2.59592C76.4091 2.4309 76.6951 2.36495 76.877 2.16545C77.187 1.82542 77.0311 1.2397 76.6732 0.950531C76.3154 0.661359 75.8315 0.594231 75.3731 0.556131C73.7792 0.423675 72.1762 0.511201 70.5792 0.598792C67.4575 0.770015 64.3358 0.941237 61.214 1.11246C60.5856 1.14693 59.86 1.09427 59.2837 1.3088C58.7957 1.49042 58.4488 1.82381 57.8907 1.94094C56.8605 2.15718 55.7268 2.01085 54.7946 2.58961Z" fill="#E4E7EB"/>
<path d="M72.546 10.3457C72.4494 10.3302 72.3507 10.3529 72.2701 10.4091C72.2169 10.4686 72.1852 10.5446 72.1803 10.6248C72.1191 10.9785 72.192 11.3425 72.3844 11.644C72.584 11.9453 72.9292 12.113 73.2859 12.0821C73.7127 12.0269 74.0273 11.6579 74.4197 11.4778C75.0244 11.2004 77.5929 10.7681 75.8162 9.79528C75.2039 9.46001 74.8082 9.75597 74.3257 9.97677C73.7766 10.2615 73.1613 10.389 72.546 10.3457Z" fill="#E4E7EB"/>
<path d="M87.979 2.3176C87.7662 2.40237 87.5882 2.55345 87.4727 2.74726C87.3623 2.95166 87.4356 3.20461 87.6395 3.32236C87.719 3.35046 87.8032 3.36349 87.8877 3.36075L88.753 3.38595C89.1206 3.39666 89.5798 3.47299 89.6786 3.81835C89.7519 4.0748 89.5877 4.40433 89.7858 4.5876C89.8708 4.65178 89.973 4.69064 90.0802 4.69953C90.3652 4.77091 90.6629 4.78028 90.952 4.72696C91.5816 4.56232 91.2508 4.18769 91.4491 3.85411C91.7525 3.34371 91.6999 3.65267 92.2345 3.36015C92.6293 3.14412 93.1395 2.75224 92.81 2.20164C92.2369 1.24415 88.8246 1.90627 87.979 2.3176Z" fill="#E4E7EB"/>
<path d="M105.438 1.81433L104.922 1.88818C103.756 2.05471 102.585 2.22277 101.462 2.59751C101.948 2.80322 102.458 2.93715 102.977 2.99564C103.263 3.01066 103.547 3.05391 103.826 3.12484C104.322 3.28287 104.821 3.69097 105.3 3.48192C105.597 3.3523 105.694 3.02119 105.94 2.84571C106.11 2.72454 106.754 2.52842 106.826 2.40612C107.408 1.41741 105.886 1.75038 105.438 1.81433Z" fill="#E4E7EB"/>
<path d="M107.39 4.01752C106.732 4.40186 106.122 4.86889 105.573 5.40819C105.342 5.63547 105.106 5.91814 105.127 6.24924C105.155 6.6893 105.603 6.94456 105.992 7.11651L107.565 7.81298C107.756 7.53171 107.581 7.14344 107.384 6.86703C107.187 6.59062 106.952 6.27083 107.039 5.93821C107.139 5.55863 107.582 5.42928 107.953 5.36389C108.558 5.25735 110.189 5.26589 109.993 4.24684C109.762 3.04608 107.997 3.66272 107.39 4.01752Z" fill="#E4E7EB"/>
<path d="M107.069 70.0431C106.912 70.4837 106.897 71.0028 107.168 71.3875C107.473 71.8192 108.081 71.9801 108.607 71.8706C109.132 71.7351 109.599 71.4432 109.944 71.036C110.259 70.6949 110.518 70.3087 110.712 69.891C110.983 69.2401 111.174 68.5604 111.282 67.8661L111.792 65.2598C111.907 64.6774 111.902 62.8916 110.8 63.4734C110.499 63.6324 109.802 64.8873 109.487 65.2432C108.918 65.8846 108.843 66.5069 108.544 67.2839C108.169 68.2572 107.416 69.0683 107.069 70.0431Z" fill="#E4E7EB"/>
<path d="M163.992 83.4168C163.654 83.2683 163.325 83.0926 163.009 82.8909C162.692 83.8697 162.524 84.9014 162.511 85.9428L164.827 84.47C165.175 84.2484 165.57 83.9405 165.563 83.4907C165.569 83.3775 165.52 83.2695 165.435 83.209C165.383 83.1858 165.327 83.1784 165.272 83.1876C164.929 83.2198 164.616 83.4097 164.292 83.5417C163.968 83.6738 163.589 83.7436 163.292 83.5476" fill="#E4E7EB"/>
<path d="M176.611 84.3214C176.359 84.3915 176.113 84.4818 175.874 84.5914C175.347 84.8653 174.988 85.3855 174.514 85.7463C174.06 86.0915 173.513 86.2811 172.977 86.4654C172.819 86.6078 172.891 86.8947 173.063 87.0198C173.247 87.1268 173.458 87.1753 173.669 87.1591C174.227 87.1717 174.814 87.1771 175.303 86.9023C175.578 86.72 175.835 86.5114 176.071 86.2792C176.642 85.7929 177.328 85.472 178.007 85.1619C178.254 85.0667 178.482 84.9273 178.681 84.7502C179.108 84.3213 179.138 83.6595 178.523 83.5135C178.026 83.3956 177.084 84.1651 176.611 84.3214Z" fill="#E4E7EB"/>
<path d="M182.369 80.9215C182.429 80.2901 182.199 79.6659 181.747 79.2286C181.741 79.8521 181.722 80.5163 181.377 81.0319C181.131 81.3993 180.746 81.6474 180.477 81.9973C180.207 82.3473 180.088 82.9019 180.404 83.209C180.606 83.3652 180.851 83.4513 181.105 83.4546C181.734 83.5298 182.462 83.5718 182.903 83.11C183.144 82.858 183.261 82.4847 183.554 82.2994C183.664 82.2527 183.761 82.1816 183.84 82.0915C183.961 81.8956 183.769 81.6374 183.552 81.5669C183.335 81.4963 183.096 81.5295 182.878 81.4624C182.66 81.3954 182.46 81.1463 182.572 80.9448" fill="#E4E7EB"/>
<path d="M172.136 58.6875C171.814 58.7649 171.481 58.7844 171.152 58.7449C170.605 58.6455 170.18 58.2381 169.739 57.904C168.69 57.114 167.415 56.6733 166.097 56.6453C164.898 56.6229 163.688 56.9443 162.511 56.72C162.588 57.1433 162.954 57.4608 163.345 57.6495C163.735 57.8382 164.166 57.9331 164.559 58.118C165.188 58.417 165.686 58.9301 165.963 59.5633C166.09 59.8553 166.169 60.1729 166.361 60.4278C166.752 60.9488 167.494 61.0633 168.149 61.0206C169.003 60.9651 169.894 60.7222 170.688 61.0368C171.296 61.2775 171.731 61.8036 172.238 62.2126C172.745 62.6217 173.46 62.9253 174.042 62.6301C172.801 62.2324 171.964 61.082 171.979 59.7908C172.55 59.8428 174.195 59.8226 174.107 58.8623C174.032 58.0484 172.627 58.5996 172.136 58.6875Z" fill="#E4E7EB"/>
<path d="M164.519 64.9941C164.621 64.4296 165.183 63.9311 165.008 63.3848C164.887 63.0069 164.45 62.8204 164.054 62.8111C163.659 62.8018 163.27 62.9199 162.874 62.9311C162.617 62.9174 162.358 62.921 162.101 62.9421C161.316 63.0715 160.832 63.8968 160.091 64.1903C159.641 64.3687 159.136 64.3346 158.667 64.4579C157.605 64.7379 156.932 65.7445 156.19 66.5561C154.989 67.8615 153.426 68.7756 151.701 69.1799C151.097 69.3201 150.448 69.4098 149.967 69.8032C149.331 70.3241 149.175 71.2171 149.033 72.028C148.642 74.2677 148.045 76.4661 147.249 78.595L149.772 78.918C150.252 78.9794 150.749 79.0394 151.211 78.897C151.547 78.77 151.865 78.6001 152.158 78.3916C153.281 77.6922 154.539 77.2371 155.849 77.0558C156.51 76.9648 157.203 76.9482 157.823 77.1944C158.443 77.4406 158.975 77.9989 159.027 78.6654C159.573 78.495 160.169 78.6402 160.576 79.0431C160.971 79.4467 161.23 79.9644 161.316 80.5233C161.382 80.8693 161.449 81.284 161.769 81.4291C162.031 81.5476 162.33 81.42 162.616 81.3971C163.586 81.3193 164.391 82.4531 165.345 82.2579C166.367 82.0485 166.619 80.5133 167.616 80.2057C168.189 80.0291 168.993 80.2439 169.267 79.7096C169.509 79.2387 169.027 78.6953 169.076 78.168C169.138 77.5187 169.902 77.2432 170.491 76.9661C172.521 76.011 173.485 73.2715 172.501 71.251C171.918 70.0539 170.771 69.1115 170.559 67.7964C170.396 66.7845 170.794 65.6046 170.15 64.8082C169.823 64.403 169.268 64.1794 169.074 63.696C168.951 63.3917 169 63.0464 168.934 62.7249C168.868 62.4035 168.589 62.0672 168.272 62.1505C167.353 62.3924 167.059 65.239 166.567 65.9306C165.819 66.9819 164.283 66.2894 164.519 64.9941Z" fill="#E4E7EB"/>
<path d="M147.942 59.8094C147.628 59.7204 147.286 59.6327 146.986 59.7599C146.686 59.8871 146.511 60.3337 146.751 60.5554C148.636 60.4809 150.533 60.4071 152.401 60.6664C154.555 60.9653 156.686 61.7056 158.848 61.4878C157.613 61.1185 156.357 60.8232 155.087 60.6035L152.97 60.1936C152.402 60.0731 151.828 59.9832 151.251 59.9244C150.043 59.8234 149.129 60.1468 147.942 59.8094Z" fill="#E4E7EB"/>
<path d="M149.669 52.7495C149.512 52.7368 149.318 52.7258 149.237 52.8567C149.159 52.9817 149.248 53.1468 149.206 53.287C149.149 53.4785 148.891 53.5274 148.687 53.5013C148.483 53.4752 148.263 53.4128 148.083 53.5081C147.895 53.6327 147.814 53.8626 147.885 54.0726C147.958 54.2755 148.078 54.4601 148.234 54.6128C148.501 54.9391 148.805 55.2349 149.14 55.4948C149.79 55.9598 150.669 56.1839 151.078 56.8589C151.136 56.9897 151.225 57.1055 151.337 57.1969C151.534 57.3175 151.79 57.2257 152.001 57.132L152.742 56.8036C152.875 56.7569 152.995 56.6783 153.088 56.575C153.258 56.3522 153.154 56.0353 153.012 55.7953C152.87 55.5552 152.688 55.3068 152.718 55.0316C152.772 54.5408 153.423 54.3531 153.69 53.9332C153.96 53.51 153.784 52.9647 153.815 52.4681C153.852 51.8873 154.228 51.1319 153.623 50.6979C153.108 50.3292 152.617 50.6699 152.248 51.0771C151.469 51.9356 151.101 52.8655 149.669 52.7495Z" fill="#E4E7EB"/>
<path d="M154.094 43.7925C154.333 44.2921 154.832 44.5903 155.093 45.0768C155.376 45.6041 155.344 46.2855 155.651 46.7966C155.966 47.3211 156.6 47.5995 156.777 48.196C156.97 48.8472 156.532 49.6387 156.881 50.2077C157.012 50.3957 157.21 50.5151 157.426 50.5367C157.642 50.5584 157.857 50.4803 158.018 50.3215C158.324 49.9586 158.308 49.3963 157.983 49.0538C157.777 48.8486 157.48 48.7599 157.308 48.5202C157.218 48.3819 157.158 48.2232 157.133 48.056C157.039 47.5738 157.054 47.0739 157.177 46.5995C157.223 46.4791 157.235 46.3463 157.21 46.2185C157.133 45.9726 156.827 45.9552 156.613 45.8411C156.126 45.582 156.137 44.833 156.222 44.2497C156.166 44.638 154.896 43.9775 154.763 43.7576C154.499 43.3206 154.643 42.4777 154.591 41.9948C154.021 42.2942 153.801 43.1817 154.094 43.7925Z" fill="#E4E7EB"/>
<path d="M140.569 51.5863C140.314 51.3175 139.93 51.0362 139.588 51.1984C139.327 51.3221 139.255 51.6619 139.357 51.9196C139.482 52.1698 139.674 52.3851 139.914 52.5441C140.627 53.0975 141.394 53.5969 142.016 54.2402C143.129 55.3913 143.718 56.9446 144.929 58.0051C145.172 58.251 145.494 58.4151 145.846 58.4723C146.198 58.5032 146.594 58.2908 146.635 57.9596C146.668 57.6868 146.466 57.4427 146.269 57.2405C145.798 56.7592 145.284 56.3161 144.84 55.8132C144.635 55.62 144.506 55.3667 144.475 55.0952C144.473 54.8244 144.735 54.541 145.014 54.608C144.675 54.5265 144.423 53.9948 143.926 53.8949C143.51 53.8114 143.409 54.0537 142.914 53.8539C141.971 53.4729 141.23 52.2828 140.569 51.5863Z" fill="#E4E7EB"/>
<path d="M162.03 24.6222C161.759 24.5426 161.492 24.4485 161.23 24.3405C160.528 24.1324 159.598 24.6419 159.691 25.3596C159.754 25.8365 160.204 26.158 160.452 26.5717C160.821 27.1851 160.723 27.9631 160.529 28.6501C160.481 28.8628 160.391 29.0639 160.263 29.2415C160.084 29.429 159.87 29.5806 159.633 29.6883C158.684 30.2132 157.847 30.9144 157.169 31.7533C157.095 31.8308 157.043 31.9264 157.02 32.03C156.986 32.2724 157.233 32.4489 157.373 32.651C157.683 33.1 157.459 33.7042 157.489 34.2466C157.48 34.4026 157.553 34.5523 157.682 34.6424C157.869 34.7361 158.091 34.577 158.192 34.3959C158.528 33.795 158.275 32.8305 158.906 32.5408C159.025 32.486 159.17 32.4629 159.249 32.3595C159.376 32.1955 159.254 31.9527 159.318 31.7566C159.414 31.4623 159.822 31.4491 160.135 31.4621C160.675 31.4844 161.214 31.4136 161.729 31.2529C161.931 31.2055 162.115 31.1007 162.257 30.9515C162.446 30.7194 162.429 30.3894 162.391 30.0942C162.202 28.623 161.73 27.2009 160.999 25.9049C161.553 25.9747 162.156 26.0352 162.634 25.7503C162.902 25.5909 163.223 25.1139 163.09 24.7892C162.88 24.2759 162.501 24.708 162.03 24.6222Z" fill="#E4E7EB"/>
<path d="M93.6095 32.3227C93.6738 32.6654 93.737 33.0263 93.624 33.3563C93.5111 33.6864 93.1559 33.9621 92.8204 33.861C92.5601 33.7825 92.4097 33.5222 92.2249 33.3237C91.1969 32.2198 88.8775 32.8589 88.2424 31.4933C87.9833 30.9359 88.1594 30.2682 87.9826 29.6798C87.7532 28.9804 87.0774 28.5237 86.3392 28.5694C86.0118 28.6164 85.6932 28.711 85.3934 28.8501C83.3856 29.65 81.2776 30.1744 79.1276 30.4089C78.719 30.4337 78.3149 30.5068 77.9237 30.6268C77.0409 30.9451 76.4377 31.7592 76.0084 32.5899C75.5791 33.4206 75.2622 34.3199 74.6867 35.0579C74.0818 35.8335 73.2343 36.3767 72.4436 36.9642C72.1391 37.1594 71.8854 37.4238 71.7037 37.7356C71.5323 38.0856 71.5419 38.4927 71.5552 38.8818L71.7168 43.6075C71.7376 44.2153 71.7637 44.8449 72.0372 45.3888C72.3788 46.0681 73.0535 46.513 73.5216 47.113C73.9992 47.7297 74.2481 48.4915 74.226 49.2697C74.216 49.5825 74.1847 49.9525 74.4297 50.149C74.5787 50.2451 74.7531 50.295 74.9307 50.2923L81.3576 50.8155C82.4882 50.9075 83.7411 51.0588 84.4792 51.9156C84.8276 52.3199 85.1074 52.9013 85.641 52.9447C85.8698 52.9633 86.0925 52.8699 86.3215 52.8518C86.899 52.8063 87.4064 53.2423 87.7266 53.7226C88.2112 54.4545 88.4312 55.3286 88.3504 56.2014C88.2979 56.7492 88.1271 57.2818 88.0903 57.8308C87.9502 59.9201 89.7309 61.7353 89.7654 63.8289C89.7857 65.0604 89.1979 66.211 88.6249 67.3029C89.5498 68.6964 88.7924 70.5521 89.1606 72.1812C89.51 73.7268 90.8056 74.9368 91.1285 76.4881C91.2763 77.1983 91.2848 78.0723 91.9145 78.438C92.1907 78.572 92.497 78.633 92.8038 78.6151C94.6545 78.6369 96.4841 78.2227 98.1429 77.4062C98.9214 77.0219 99.7282 76.4483 99.8642 75.5944C99.9739 74.9059 99.6228 74.1357 99.9801 73.536C100.401 72.8291 101.48 72.8851 102.099 72.3417C103.104 71.46 102.321 69.7785 102.728 68.5086C103.094 67.3671 104.354 66.7607 104.979 65.7362C105.224 65.2956 105.401 64.8201 105.502 64.3262C105.788 63.146 105.966 61.9425 106.034 60.7303C106.05 59.9938 106.105 59.2586 106.197 58.5277C106.871 54.3664 111.007 51.5799 112.35 47.5823C112.478 47.2005 112.538 46.692 112.197 46.476C111.994 46.3798 111.765 46.3559 111.546 46.4083L108.584 46.7798C108.216 46.8259 107.826 46.8691 107.488 46.717C107.15 46.565 106.908 46.1398 107.087 45.8168C107.59 44.9102 106.555 43.7646 106.095 42.8355C104.857 40.3339 103.382 37.9549 101.691 35.7309C101.582 35.6165 101.515 35.4701 101.498 35.3139L102.338 35.3418C102.055 34.3288 101.586 33.2202 100.597 32.8496C100.039 32.6408 99.4216 32.713 98.8267 32.7453C97.1228 32.8379 95.296 32.582 93.6095 32.3227Z" fill="#E4E7EB"/>
<path d="M98.2768 9.82817C98.7232 10.3017 99.2234 10.8037 99.8692 10.8862C101.01 11.032 101.83 9.85368 102.352 8.83021C102.392 9.37275 102.858 9.78476 103.402 9.75961C103.683 9.71229 103.952 9.60734 104.191 9.45134C106.451 8.2176 108.983 7.56391 111.558 7.549C111.507 7.14535 111.769 6.76825 112.166 6.67532C112.689 6.57162 113.161 7.02385 113.414 7.49363C113.666 7.9634 113.824 8.50791 114.225 8.85954C114.626 9.21117 115.403 9.19585 115.562 8.68665C115.714 8.1978 115.204 7.78091 114.781 7.4927C114.357 7.20448 113.911 6.67105 114.196 6.24572C116.36 5.76723 118.537 5.28693 120.752 5.19182C121.129 5.20493 121.504 5.14029 121.855 5.00193C122.193 4.8364 122.461 4.46065 122.371 4.09602C121.382 4.32811 120.351 3.93976 119.763 3.11346C122.835 2.8602 126.103 2.64432 128.826 4.08848C129.153 4.78917 127.488 5.37214 127.933 6.00413C128.075 6.2057 128.36 6.22933 128.607 6.23391C130.499 6.269 132.402 6.30341 134.273 6.01805C134.957 5.91377 135.647 5.76655 136.334 5.85112C137.477 5.99197 138.455 6.75398 139.58 7.00242C140.038 7.10354 140.551 7.10697 140.937 6.84099C141.323 6.575 141.489 5.96936 141.172 5.62359C142.231 4.58677 143.989 4.84374 145.386 5.34012C146.783 5.83649 148.107 6.63698 149.586 6.74763C150.646 6.82697 151.721 6.54205 152.769 6.72315C153.427 6.83695 154.04 7.12955 154.684 7.30931C155.901 7.64931 157.188 7.57754 158.452 7.5939C161.676 7.63729 164.866 8.27029 167.862 9.46156C168.251 9.58831 168.608 9.79906 168.908 10.0789C169.186 10.3771 169.329 10.8405 169.141 11.203L166.045 10.7512C166.337 11.3248 167.092 11.4225 167.705 11.6204C168.317 11.8182 168.953 12.4943 168.584 13.022C167.92 12.8109 167.319 13.474 166.983 14.0841C166.648 14.6943 166.239 15.425 165.543 15.4622C164.92 15.4954 164.167 14.9655 163.76 15.4387C164.322 16.1458 164.802 16.9131 165.193 17.7265C165.594 18.5616 165.88 19.6138 165.338 20.3651C165.252 20.4992 165.123 20.5994 164.972 20.6486C164.529 20.7606 164.241 20.2193 163.923 19.8913C163.523 19.4779 162.918 19.3608 162.376 19.1669C161.834 18.973 161.263 18.5916 161.22 18.018C161.194 17.6611 161.382 17.3294 161.521 16.9996C161.755 16.4437 161.857 15.8414 161.82 15.2397C161.789 14.7556 161.653 14.252 161.305 13.9138C160.957 13.5755 160.356 13.4682 159.983 13.778C159.808 13.9226 159.669 14.1538 159.442 14.1624C159.042 14.1777 158.735 13.481 158.413 13.7189C158.451 13.9723 158.398 14.2309 158.265 14.4494C157.304 15.2838 155.829 14.9308 154.59 15.2256C154.002 15.3939 153.438 15.6398 152.914 15.9568C152.718 16.0405 152.552 16.1803 152.435 16.3586C152.281 16.6586 152.451 17.0428 152.723 17.2423C153.012 17.4193 153.337 17.53 153.674 17.5664C155.183 17.852 156.715 18.294 157.907 19.2625C159.098 20.231 159.88 21.832 159.503 23.3197L156.526 20.4784C156.639 21.6714 156.703 22.8677 156.719 24.0673C156.738 24.3015 156.706 24.5371 156.624 24.7576C156.412 25.2258 155.837 25.3834 155.333 25.4867C155.049 25.5405 154.802 25.7128 154.654 25.9601C154.505 26.2074 154.47 26.5062 154.556 26.7813C154.735 27.3644 155.182 27.819 155.591 28.2719C155.999 28.7249 156.402 29.2397 156.455 29.8472C156.509 30.4547 156.05 31.1395 155.441 31.0973C154.979 31.0652 154.637 30.6523 154.44 30.234C154.243 29.8156 154.126 29.3495 153.83 28.994C152.934 27.918 150.922 28.379 150.12 27.2319C149.704 27.7031 149.562 28.3557 149.745 28.9568C150.118 28.7234 150.629 28.9403 150.909 29.2794C151.19 29.6186 151.322 30.0534 151.542 30.4344C151.84 30.9484 152.313 31.4041 152.354 31.9962C152.343 32.2201 152.347 32.4445 152.365 32.6679C152.439 33.0267 152.743 33.2844 152.953 33.5843C153.443 34.2821 153.419 35.2407 153.103 36.0324C152.787 36.8242 152.22 37.4858 151.658 38.1272C150.677 39.2475 149.676 40.3613 148.513 41.2917C148.181 41.5572 147.827 41.8182 147.62 42.1894C147.413 42.5605 147.402 43.0815 147.72 43.3638C147.493 43.3752 147.085 43.4869 146.858 43.4982C146.778 42.5874 146.761 41.6722 146.806 40.759C145.909 40.3287 144.943 41.4809 145.059 42.4681C145.175 43.4554 145.889 44.2476 146.398 45.1017C146.771 45.7263 147.047 46.4546 146.923 47.1707C146.799 47.8869 146.159 48.5476 145.434 48.4844C144.281 48.384 143.798 46.7305 142.657 46.5413C142.556 46.5176 142.45 46.5281 142.356 46.5711C142.187 46.664 142.157 46.8905 142.148 47.0834C142.101 48.0301 142.06 49.0145 142.43 49.8874C142.972 51.1643 144.37 52.2368 144.077 53.5922C142.496 52.8585 141.675 51.0885 141.302 49.3883C140.929 47.6881 140.867 45.9033 140.198 44.296C139.69 44.946 138.623 44.4087 138.159 43.7267C137.72 43.0802 137.449 42.3323 137.022 41.6771C136.595 41.0219 135.942 40.4352 135.16 40.3992C134.341 40.3614 133.63 40.9232 133.005 41.454C132.491 41.8905 131.963 42.3441 131.663 42.9475C131.225 43.8255 131.34 44.8606 131.319 45.841C131.296 46.9009 131.071 48.0192 130.348 48.7951C129.625 49.5711 128.29 49.8413 127.492 49.142C127.076 48.7769 126.874 48.2315 126.694 47.7079C125.829 45.184 125.108 42.6128 124.535 40.007C124.401 40.6017 123.878 41.3683 123.378 41.018C123.266 40.9238 123.176 40.8069 123.112 40.6751C122.18 39.0978 120.455 38.1517 118.712 37.5844C116.968 37.0171 115.134 36.7525 113.41 36.129C112.444 35.7795 111.522 35.3204 110.66 34.7607C110.213 35.4171 110.162 36.2657 110.528 36.9707C110.91 37.647 111.776 38.0384 112.517 37.802C112.899 37.6798 113.223 37.4143 113.603 37.2832C113.982 37.1521 114.492 37.2165 114.658 37.5821C114.817 37.9319 114.577 38.3552 114.696 38.7205C114.878 39.2769 115.718 39.3198 116.012 39.8261C116.23 40.2028 116.05 40.703 115.738 41.007C115.426 41.311 115.01 41.4777 114.629 41.6893C113.393 42.3759 112.514 43.548 111.433 44.4598C110.353 45.3717 108.829 46.0375 107.542 45.4526C107.849 43.9004 105.998 42.7608 105.657 41.2156C105.545 40.707 105.603 40.1667 105.443 39.6711C105.211 38.9535 104.574 38.4601 104.051 37.9163C102.77 36.5694 102.088 34.7624 102.16 32.9058C102.188 32.2672 102.306 31.6182 102.16 30.9957C102.014 30.3733 101.499 29.7708 100.859 29.799C99.3991 29.8634 97.5596 29.9719 96.7935 28.7286C96.52 28.2848 96.4011 27.6349 96.7964 27.2949C97.0752 27.055 97.4869 27.0776 97.8531 27.1136L101.143 27.4369C101.913 27.5125 102.744 27.5749 103.405 27.1731C104.065 26.7713 104.351 25.7046 103.74 25.2319C103.293 24.8864 102.493 24.9052 102.363 24.356C102.255 23.8985 102.761 23.3796 102.488 22.9973C102.291 22.7232 101.85 22.7992 101.583 23.0047C101.315 23.2102 101.121 23.5107 100.822 23.6663C100.297 23.9392 99.6697 23.6794 99.1049 23.5029C98.5401 23.3264 97.7829 23.3114 97.5089 23.8354C97.2026 24.4214 97.7807 25.1894 97.4766 25.7766C97.0746 26.553 95.7132 26.111 95.1486 26.7788C94.5008 27.5452 95.5895 28.6879 95.371 29.6669C94.8036 29.9476 94.1302 29.9098 93.5978 29.5673C93.0734 29.211 92.7875 28.5956 92.8536 27.9655C92.9076 27.5251 93.1375 27.0756 92.9835 26.6594C92.859 26.3229 92.5207 26.1226 92.2064 25.9491L89.0093 24.1843C88.7124 24.7343 89.0877 25.4162 89.557 25.8294C90.0263 26.2425 90.6142 26.5536 90.9225 27.0973C91.3273 27.8793 91.0526 28.8409 90.2955 29.2916C90.203 29.3553 90.0873 29.3755 89.9786 29.3468C89.8756 29.2863 89.8014 29.1867 89.7731 29.0707C89.209 27.6287 88.362 26.207 87.008 25.4537C85.6539 24.7005 83.7083 24.8553 82.8204 26.1243C82.6094 26.4256 82.4679 26.7692 82.2842 27.0878C81.3081 28.7808 79.2155 29.5825 77.2604 29.5301C77.0691 29.5407 76.8789 29.496 76.7123 29.4015C76.3963 29.1835 76.4106 28.7209 76.4589 28.3404L76.6642 26.7255C76.7054 26.4012 76.7651 26.0428 77.022 25.8404C77.3842 25.555 77.9067 25.7351 78.368 25.7284C79.0838 25.695 79.7024 25.2181 79.9162 24.5349C80.1061 23.8485 79.9001 23.1135 79.381 22.6253C79.1696 22.427 78.8859 22.1779 78.9975 21.9105C79.0877 21.7607 79.2396 21.6586 79.4124 21.6314C80.2409 21.3911 81.1164 21.3281 81.9311 21.0445C82.7458 20.7609 83.5359 20.1807 83.7288 19.3408C83.788 19.0833 83.8149 18.7715 84.0464 18.6439C84.1625 18.5949 84.2872 18.5695 84.4133 18.569C85.3288 18.4389 85.9934 17.6321 85.9449 16.7096C86.3354 16.4371 86.8824 16.6376 87.2601 16.9274C87.6379 17.2173 87.9713 17.6002 88.431 17.7252C89.2875 17.958 90.1152 17.2005 91.0029 17.197C91.3762 17.1955 91.7626 17.3274 92.1138 17.201C92.4698 17.0728 92.6825 16.7188 92.9557 16.4573C93.2289 16.1957 93.7084 16.0362 93.9607 16.3179L93.7458 14.7282C94.6212 14.9491 95.5495 14.7815 96.2921 14.2684L93.5152 13.3312C93.4186 13.3071 93.3293 13.2594 93.2556 13.1925C93.0537 12.9754 93.2542 12.637 93.4184 12.3901C93.8111 11.7996 93.877 10.8269 93.2312 10.533C92.7904 10.3323 92.2844 10.5732 91.8613 10.8088L89.8346 11.9376C89.7702 12.3224 90.2413 12.5405 90.5332 12.7997C90.8947 13.1208 91.0216 13.6307 90.8524 14.0834C90.6833 14.5361 90.253 14.8383 89.7693 14.8443C90.0397 15.1953 90.1356 15.6502 90.03 16.0803L88.6664 16.1783C88.5133 16.2091 88.3543 16.1781 88.2241 16.0921C88.0783 15.9627 88.098 15.736 88.0642 15.5441C87.9826 15.0809 87.5286 14.7563 87.0653 14.673C86.6019 14.5898 86.1279 14.6965 85.669 14.8018C85.4742 14.8719 85.2603 14.8669 85.0689 14.788C84.9591 14.7168 84.8757 14.6117 84.8314 14.4887C84.6303 14.0014 84.8183 13.4288 85.1414 13.0121C85.4644 12.5955 85.9067 12.2909 86.3039 11.9441C87.2538 11.1115 87.9517 10.0303 88.3188 8.82242C89.0694 8.50824 89.8466 8.08137 90.5973 7.76719C91.7546 7.18188 93.0525 6.93069 94.3449 7.04188L96.8872 7.09038C97.6398 7.10474 98.4129 7.12315 99.1089 7.40977C99.8048 7.6964 100.416 8.31634 100.464 9.06679C100.494 9.2395 100.432 9.41519 100.301 9.53182C100.203 9.5854 100.092 9.61046 99.98 9.60418C99.2781 9.62883 98.9788 9.80354 98.2768 9.82817Z" fill="#E4E7EB"/>
<path d="M78.4746 17.8119C78.6695 17.6199 78.7449 17.3305 78.6699 17.0623C78.1954 16.8718 77.6581 16.9774 77.283 17.3349C77.138 17.4875 77.0131 17.6594 76.9115 17.8462C76.5899 18.3922 76.3055 19.0444 76.4919 19.6547C76.5226 19.7892 76.604 19.9051 76.7178 19.9763C76.8013 20.0112 76.8913 20.0259 76.9811 20.0192C77.3353 20.0188 77.6892 19.9961 78.0408 19.9513C78.2567 19.9239 78.5075 19.8604 78.591 19.6513C78.7007 19.3765 78.4352 19.0654 78.5126 18.7789C78.5635 18.6508 78.6406 18.5358 78.7387 18.4419C78.8373 18.346 78.8867 18.2074 78.872 18.0678C78.8408 17.9334 78.643 17.8571 78.5718 17.9739" fill="#E4E7EB"/>
<path d="M80.2719 15.2136C79.9418 15.1406 79.6016 15.1201 79.2646 15.1527C79.1901 15.1506 79.1163 15.1667 79.05 15.1997C78.9858 15.2452 78.9393 15.3102 78.9178 15.3841C78.7702 15.8402 79.0113 16.329 79.4717 16.5069C79.5928 16.5337 79.7087 16.5786 79.8153 16.6399C80.1002 16.8527 79.9185 17.2877 79.9725 17.631C80.033 18.0165 80.4205 18.3401 80.3495 18.7239C80.2935 19.0263 79.9581 19.2657 80.0121 19.5684C80.0687 19.8855 80.4865 19.9807 80.8195 20.0061C81.0126 20.0387 81.2112 20.0167 81.3916 19.943C81.5724 19.824 81.7009 19.6447 81.7525 19.4397C81.8888 19.0489 81.9461 18.6366 81.9213 18.225C81.9198 18.0378 81.871 17.8538 81.779 17.6889C81.6787 17.5582 81.5676 17.4356 81.4466 17.3223C80.8085 16.6076 81.4804 15.5416 80.2719 15.2136Z" fill="#E4E7EB"/>
<path opacity="0.8" d="M163.121 72.5143C163.121 72.5143 114.83 44.8094 94.0406 50.0587C94.0406 50.0587 49.9807 54.7977 44.8744 65.2235C44.8744 65.2235 30.8686 21.4789 25.7623 20.0208" stroke="#1665D8" stroke-width="1.22304"/>
<path opacity="0.8" d="M44.8744 65.2638C52.9715 43.8024 125.918 20.0208 125.918 20.0208C115.56 22.631 94.0406 50.1828 94.0406 50.1828C94.0406 50.1828 48.5218 17.2656 25.7623 20.3108C25.7623 20.3108 125.991 23.5735 163.121 72.5143" stroke="#1665D8" stroke-width="1.22304"/>
<ellipse cx="26.0676" cy="19.7156" rx="2.1367" ry="2.13636" fill="#1665D8"/>
<ellipse cx="44.9927" cy="64.8844" rx="2.1367" ry="2.13636" fill="#1665D8"/>
<ellipse cx="126.187" cy="19.7156" rx="2.1367" ry="2.13636" fill="#1665D8"/>
<ellipse cx="163.426" cy="72.2091" rx="2.1367" ry="2.13636" fill="#1665D8"/>
<ellipse cx="93.8314" cy="50.2351" rx="2.1367" ry="2.13636" fill="#1665D8"/>
</svg>
