<svg width="20" height="14" viewBox="0 0 20 14" fill="none" xmlns="http://www.w3.org/2000/svg">
<mask id="mask0" mask-type="alpha" maskUnits="userSpaceOnUse" x="0" y="0" width="20" height="14">
<path fill-rule="evenodd" clip-rule="evenodd" d="M7.11339 6.99999C8.9524 6.99999 10.4484 5.504 10.4484 3.66499C10.4484 1.82597 8.9524 0.329987 7.11339 0.329987C5.27438 0.329987 3.77839 1.82597 3.77839 3.66499C3.77839 5.504 5.27438 6.99999 7.11339 6.99999ZM0.44339 12.0025C0.44339 9.78233 4.8837 8.66749 7.11339 8.66749C9.34308 8.66749 13.7834 9.78233 13.7834 12.0025V13.67H0.44339V12.0025ZM7.11339 10.5732C5.40778 10.5732 3.47348 11.2116 2.67308 11.7643H11.5537C10.7533 11.2116 8.819 10.5732 7.11339 10.5732ZM8.54268 3.66499C8.54268 2.87412 7.90426 2.2357 7.11339 2.2357C6.32252 2.2357 5.6841 2.87412 5.6841 3.66499C5.6841 4.45586 6.32252 5.09427 7.11339 5.09427C7.90426 5.09427 8.54268 4.45586 8.54268 3.66499ZM13.8215 8.72466C14.9268 9.52506 15.6891 10.5923 15.6891 12.0025V13.67H19.5005V12.0025C19.5005 10.0777 16.1655 8.98193 13.8215 8.72466ZM16.1655 3.66499C16.1655 5.504 14.6695 6.99999 12.8305 6.99999C12.316 6.99999 11.8396 6.87612 11.4012 6.66649C12.0015 5.81844 12.3541 4.77983 12.3541 3.66499C12.3541 2.55014 12.0015 1.51153 11.4012 0.663487C11.8396 0.453858 12.316 0.329987 12.8305 0.329987C14.6695 0.329987 16.1655 1.82597 16.1655 3.66499Z" fill="white"/>
</mask>
<g mask="url(#mask0)">
<rect x="-2" y="-5" width="24" height="24" fill="#66788A"/>
</g>
</svg>
